<?xml version="1.0" encoding="UTF-8" standalone="no"?>
<!-- Created with Inkscape (http://www.inkscape.org/) -->

<svg
   xmlns:dc="http://purl.org/dc/elements/1.1/"
   xmlns:cc="http://creativecommons.org/ns#"
   xmlns:rdf="http://www.w3.org/1999/02/22-rdf-syntax-ns#"
   xmlns:svg="http://www.w3.org/2000/svg"
   xmlns="http://www.w3.org/2000/svg"
   xmlns:sodipodi="http://sodipodi.sourceforge.net/DTD/sodipodi-0.dtd"
   xmlns:inkscape="http://www.inkscape.org/namespaces/inkscape"
   width="64"
   height="64"
   id="svg2"
   version="1.1"
   inkscape:version="0.48.2 r9819"
   sodipodi:docname="angrybird.svg">
  <defs
     id="defs4" />
  <sodipodi:namedview
     id="base"
     pagecolor="#ffffff"
     bordercolor="#666666"
     borderopacity="1.0"
     inkscape:pageopacity="0.0"
     inkscape:pageshadow="2"
     inkscape:zoom="13.032765"
     inkscape:cx="38.375467"
     inkscape:cy="30.366298"
     inkscape:document-units="px"
     inkscape:current-layer="svg2"
     showgrid="false" />
  <metadata
     id="metadata7">
    <rdf:RDF>
      <cc:Work
         rdf:about="">
        <dc:format>image/svg+xml</dc:format>
        <dc:type
           rdf:resource="http://purl.org/dc/dcmitype/StillImage" />
        <dc:title />
      </cc:Work>
    </rdf:RDF>
  </metadata>
  <path
     style="fill:#000000;fill-opacity:1;stroke:none;display:inline"
     d="M 1.6741786,30.206731 C 1.2197289,30.308284 -0.16240347,34.172686 0.01575475,34.639076 C 0.19391651,35.105463 9.0459469,36.081187 9.0459469,36.081187 C 6.6871178,36.536672 3.9423456,37.070806 3.7489163,37.373214 C 3.555487,37.675621 4.6777109,40.163501 5.0245251,40.351612 C 5.3713375,40.539723 7.2126618,38.817831 8.9437754,37.432147 C 6.4469027,57.003956 24.393229,63.111111 37.507477,63.111111 C 50.621725,63.111111 64,57.609017 64,39.339203 C 64,21.069389 48.163877,13.675361 46.483726,12.550399 C 42.800268,3.2958246 34.723424,-0.06881869 30.650873,1.2951269 C 26.578323,2.6590824 29.007771,6.8563915 29.007771,6.8563915 C 24.115158,5.9913053 18.746901,7.1144563 18.397141,10.041471 C 18.047381,12.968497 24.339585,13.338755 24.339585,13.338755 C 18.707399,16.775539 13.379952,22.642798 10.220975,31.739391 C 9.0262563,29.366148 8.0675337,27.092106 7.7329009,27.015961 C 7.3982689,26.939816 4.8471375,29.108451 4.7029589,29.559078 C 4.5587811,30.009705 6.8563863,31.841242 9.5232811,34.041284 C 9.5232811,34.041284 2.1286293,30.105178 1.6741786,30.206731 z"
     id="path2997"
     inkscape:connector-curvature="0"
     sodipodi:nodetypes="zzczzczzczczcczzcz" />
  <path
     style="fill:#d6002d;fill-opacity:1;stroke:none;display:inline"
     d="M 32.720687,2.1767233 C 31.974047,2.2118033 31.354393,2.5194095 30.718731,2.9274477 C 26.293105,5.7683213 38.037895,11.484299 40.478251,12.436716 C 36.210153,11.781134 33.600544,10.877087 30.343362,7.9323318 C 30.343362,7.9323318 21.325194,5.7658511 20.083363,9.6840348 C 19.189283,12.505019 26.210509,12.548469 32.470447,12.937206 C 21.955861,12.280894 10.261291,26.898759 9.9484873,40.839401 C 9.6876802,52.462531 20.026145,60.608674 37.725566,60.984041 C 47.59313,61.193305 54.35113,57.855312 58.370685,52.851108 C 57.009663,51.93545 55.774845,51.280128 55.117512,51.224527 C 54.735156,51.543163 48.095352,56.932985 47.109708,56.855014 C 46.124072,56.777041 42.786001,54.831216 40.102882,52.475741 C 38.840535,51.37479 37.975806,51.34916 37.975806,49.097447 C 37.975806,46.845745 40.196624,43.523022 43.981655,41.339891 C 38.638464,40.792052 36.559184,42.567356 36.340784,42.312062 C 36.122384,42.056768 36.4693,41.760352 36.66698,41.551553 C 35.285522,39.217802 34.655442,36.423418 37.225077,33.457213 C 35.221006,32.644038 33.231113,31.676119 33.096047,31.20501 C 32.960989,30.733901 35.514989,26.126264 36.098971,26.200136 C 36.682953,26.274008 39.350579,30.1344 48.235806,34.207936 C 52.462205,32.142807 55.434169,29.923696 58.871174,27.576472 C 59.9692,29.210303 60.885227,30.947785 61.12336,32.581357 L 57.119467,34.333059 C 57.690818,35.043142 58.3636,36.626388 57.94152,38.7794 C 57.94152,38.7794 58.606231,38.978072 58.541751,39.480772 C 58.47728,39.983472 53.660614,38.514185 51.488979,40.589157 C 55.792205,43.047833 59.645591,46.371925 59.997271,50.473793 C 62.063147,46.976388 63.014756,42.86091 63.000187,38.837454 C 62.940827,22.435085 46.484099,14.313552 46.484099,14.313552 C 45.335504,9.9763708 37.947095,1.9310896 32.720687,2.1767233 z"
     id="path3767"
     inkscape:connector-curvature="0"
     sodipodi:nodetypes="ssccscssccscsczccssccccczccscs" />
  <path
     style="fill:#ffffff;fill-opacity:1;stroke:none;display:inline"
     d="M 37.67842,33.644591 C 36.458802,35.600057 35.606598,38.684442 37.725566,41.089647 C 39.501299,40.456284 41.612526,40.284986 44.905735,40.791444 C 44.905735,40.791444 47.242454,39.833458 47.41361,39.514104 C 47.584766,39.194748 47.725939,37.41315 47.725939,37.41315 C 44.385486,36.302148 40.936446,35.08534 37.67842,33.644591 z M 42.605317,36.460139 C 43.454313,36.460139 44.106775,37.143142 44.106775,37.961597 C 44.106775,38.780053 43.454313,39.463066 42.605317,39.463066 C 41.756322,39.463066 40.97873,38.780053 40.97873,37.961597 C 40.97873,37.143142 41.756322,36.460139 42.605317,36.460139 z"
     id="path3772"
     inkscape:connector-curvature="0"
     sodipodi:nodetypes="ccczccsssss" />
  <path
     style="fill:#ffffff;fill-opacity:1;stroke:none;display:inline"
     d="M 55.930801,34.833549 L 48.553299,37.3459 C 48.312979,38.38266 48.520846,39.095789 48.773174,39.520877 C 49.183974,39.760366 50.131077,40.013726 50.701512,40.26098 C 52.24497,38.857674 54.859547,38.30373 57.003992,38.559242 C 57.193929,37.827155 57.284738,35.637364 55.930801,34.833549 z M 50.488001,37.085741 C 51.153761,37.085741 51.739219,37.512579 51.739219,38.08672 C 51.739219,38.66086 51.153761,39.087698 50.488001,39.087698 C 49.822232,39.087698 49.361894,38.66086 49.361894,38.08672 C 49.361894,37.512579 49.822232,37.085741 50.488001,37.085741 z"
     id="path3782"
     inkscape:connector-curvature="0"
     sodipodi:nodetypes="ccccccsssss" />
  <path
     style="fill:#fbba1e;fill-opacity:1;stroke:none;display:inline"
     d="M 48.141966,40.119948 C 43.409824,41.776302 39.418704,46.15407 39.418704,47.19334 C 39.418704,48.232609 44.807477,48.757804 48.073388,49.190255 C 52.042125,49.71577 55.514934,50.230802 59.121414,52.538302 C 60.254596,49.78234 56.040587,42.799839 48.141966,40.119948 z"
     id="path3788"
     inkscape:connector-curvature="0"
     sodipodi:nodetypes="czscc" />
  <path
     style="fill:#f59c1e;fill-opacity:1;stroke:none;display:inline"
     d="M 41.135139,52.037823 C 44.267139,49.537045 48.795894,49.365353 54.179565,51.117725 C 52.143654,52.773806 47.712463,55.804874 47.246819,55.775478 C 46.627975,55.736408 43.017859,53.729484 41.135139,52.037823 z"
     id="path3790"
     inkscape:connector-curvature="0"
     sodipodi:nodetypes="ccsc" />
  <path
     style="fill:#ffffff;fill-opacity:1;stroke:none;display:inline"
     d="M 39.127184,48.128115 C 38.678953,49.152376 38.642908,50.697793 40.073593,51.589898 C 41.684055,50.469571 42.639468,49.951952 45.106917,49.451886 C 42.895424,49.247709 39.251637,48.942707 39.127184,48.128115 z"
     id="path3792"
     inkscape:connector-curvature="0"
     sodipodi:nodetypes="cccc" />
  <path
     sodipodi:nodetypes="ssccccs"
     inkscape:connector-curvature="0"
     id="path3794"
     d="M 32.720687,2.1767233 C 31.974047,2.2118033 31.354393,2.5194095 30.718731,2.9274477 C 30.060456,3.3500059 29.75994,3.836165 29.733345,4.3607943 C 36.14338,1.9111482 42.504917,8.4984722 43.924561,15.893722 C 47.781032,17.92182 61.601351,24.181838 63.000187,38.837454 C 62.940827,22.435085 46.484099,14.313552 46.484099,14.313552 C 45.335504,9.9763708 37.947095,1.9310896 32.720687,2.1767233 z"
     style="fill:#ff0052;fill-opacity:1;stroke:none;display:inline" />
  <path
     sodipodi:type="arc"
     style="fill:#a80023;fill-opacity:1;fill-rule:nonzero;stroke:none;display:inline"
     id="path3796"
     sodipodi:cx="5.1872911"
     sodipodi:cy="11.260175"
     sodipodi:rx="0.77892232"
     sodipodi:ry="0.89493203"
     d="M 5.9662135,11.260175 A 0.77892232,0.89493203 0 1 1 4.4083688,11.260175 A 0.77892232,0.89493203 0 1 1 5.9662135,11.260175 z"
     transform="matrix(2.8994945,-0.80820049,0.88924643,3.1902544,-3.9251996,12.651801)" />
  <path
     style="fill:#a80023;fill-opacity:1;fill-rule:nonzero;stroke:none;display:inline"
     d="M 30.545647,41.27559 C 30.753745,43.880769 29.900251,46.403326 28.362456,46.577849 C 26.326563,46.808884 25.633789,44.652953 25.4257,42.047775 C 25.217612,39.442595 26.19506,36.848807 27.6089,36.745524 C 29.022731,36.642233 30.337567,38.67041 30.545647,41.27559 z"
     id="path3798"
     inkscape:connector-curvature="0"
     sodipodi:nodetypes="sssss" />
  <path
     style="fill:#a80023;fill-opacity:1;stroke:none;display:inline"
     d="M 36.908331,33.841669 C 34.748953,34.950159 33.239744,37.477624 32.902775,39.597224 C 32.297967,43.401566 33.37666,46.054048 35.472224,46.969445 C 36.378757,47.365443 37.386731,47.38942 38.350002,47.219445 C 38.50506,46.867253 38.571175,46.78595 38.858331,46.266668 C 39.837415,44.540393 41.597468,42.713408 43.980552,41.33889 C 38.637362,40.791051 36.560064,42.566407 36.341664,42.311112 C 36.123264,42.055818 36.46898,41.761578 36.666669,41.552779 C 35.371549,39.364888 34.737522,36.770738 36.780553,34.011113 C 36.784029,34.006417 36.788171,34.001921 36.791664,33.997224 C 36.797424,33.989007 36.802491,33.98041 36.808331,33.972224 C 36.840215,33.927517 36.874144,33.885397 36.908331,33.841669 z"
     id="path3813"
     inkscape:connector-curvature="0"
     sodipodi:nodetypes="csscccsccccc" />
  <path
     sodipodi:nodetypes="csccscscc"
     inkscape:connector-curvature="0"
     id="path3819"
     d="M 18.055648,55.798803 C 22.781914,58.933742 29.448927,60.808508 37.725566,60.984041 C 44.803815,61.134154 50.28201,59.459012 54.297165,56.6529 C 54.570596,56.6529 52.887743,53.338667 52.559032,53.257065 C 50.448419,54.891826 47.714526,56.902864 47.109708,56.855014 C 46.124072,56.777041 42.786001,54.831216 40.102882,52.475741 C 38.840535,51.37479 37.975806,51.34916 37.975806,49.097447 C 37.975806,48.403894 38.1865,47.608729 38.588704,46.776554 C 30.070385,47.236522 22.884776,49.420423 18.055648,55.798803 z"
     style="fill:#e2c4a8;fill-opacity:1;stroke:none;display:inline" />
  <path
     sodipodi:nodetypes="csscccsccc"
     inkscape:connector-curvature="0"
     id="path3821"
     d="M 25.516536,14.540196 C 17.374821,18.658424 10.192708,29.955327 9.9484873,40.839401 C 9.687682,52.462531 20.026145,60.608674 37.725566,60.984041 C 46.126455,61.162204 52.273467,58.769239 56.395609,54.965918 C 53.112632,56.15809 51.291503,56.831533 47.109708,56.855014 C 46.124072,56.777041 42.786001,54.831216 40.102882,52.475741 C 38.842873,51.376528 37.975806,51.34916 37.975806,49.097447 C 37.975806,48.366793 38.209655,47.523348 38.6549,46.642671 C 34.750855,49.322892 30.111336,51.822769 28.357594,53.072783 C 11.257305,45.950118 18.517025,19.278076 25.516536,14.540196 z"
     style="fill:#000000;fill-opacity:0.15686275;stroke:none;display:inline" />
  <path
     style="fill:#a80023;fill-opacity:1;stroke:none;display:inline"
     d="M 57.122223,34.336113 C 57.693067,35.047607 58.363165,36.630484 57.941663,38.780557 C 57.941663,38.780557 58.606134,38.977857 58.541663,39.480557 C 58.478196,39.975401 53.808952,38.559597 51.591663,40.494446 C 51.556739,40.525393 51.522819,40.556469 51.48889,40.58889 C 53.949752,42.018235 56.372712,43.690857 58.111112,45.96389 C 61.628267,44.596722 62.41808,36.850245 57.122223,34.336113 z"
     id="path3795"
     inkscape:connector-curvature="0"
     sodipodi:nodetypes="ccscccc" />
  <path
     style="fill:#000000;fill-opacity:0.11764706;stroke:none;display:inline"
     d="M 37.560029,33.829889 C 36.847015,37.137682 37.306864,39.248794 39.285602,40.837866 L 37.321317,41.54719 C 35.531362,38.275283 36.039922,35.341132 37.560029,33.829889 z"
     id="path3859"
     inkscape:connector-curvature="0"
     sodipodi:nodetypes="cccc" />
</svg>
