<!-- Created with Inkscape (http://www.inkscape.org/) -->
<svg xmlns:rdf="http://www.w3.org/1999/02/22-rdf-syntax-ns#" xmlns="http://www.w3.org/2000/svg" height="15" width="15" version="1.1" xmlns:cc="http://creativecommons.org/ns#" xmlns:xlink="http://www.w3.org/1999/xlink" xmlns:dc="http://purl.org/dc/elements/1.1/">
<defs>
<radialGradient id="radialGradient3809" gradientUnits="userSpaceOnUse" cy="3.409715" cx="11.50841" gradientTransform="matrix(-1.6924876,4.1085294e-8,-4.1111989e-8,-1.6935873,31.023377,9.2246068)" r="7.488839">
<stop stop-color="#ffffc8" offset="0"/>
<stop stop-color="#ffe000" offset="0.5"/>
<stop stop-color="#e0a800" offset="1"/>
</radialGradient>
<radialGradient id="radialGradient3796" gradientUnits="userSpaceOnUse" cy="8.229865" cx="9.359089" gradientTransform="matrix(1.0004852,0,0,0.14839469,-1.786576,9.7166357)" r="6.109375">
<stop stop-color="#F88" stop-opacity="0.627451" offset="0"/>
<stop stop-color="#F88" stop-opacity="0" offset="1"/>
</radialGradient>
</defs>
<metadata>
<rdf:RDF>
<cc:Work rdf:about="">
<dc:format>image/svg+xml</dc:format>
<dc:type rdf:resource="http://purl.org/dc/dcmitype/StillImage"/>
<dc:title/>
</cc:Work>
</rdf:RDF>
</metadata>
<g transform="translate(0,-1037.3622)">
<path d="m15,7.488839c0,4.135972-3.352867,7.488839-7.488839,7.488839s-7.488839-3.352867-7.488839-7.488839c-3E-7-4.135973,3.352867-7.488841,7.488839-7.488841,4.135969,0,7.488839,3.352868,7.488839,7.488839z" fill-rule="nonzero" transform="matrix(1.0014903,0,0,1.0014903,-0.02235497,1037.3622)" fill="#804000"/>
<path d="m15,7.488839c0,4.135972-3.352867,7.488839-7.488839,7.488839s-7.488839-3.352867-7.488839-7.488839c-3E-7-4.135973,3.352867-7.488841,7.488839-7.488841,4.135969,0,7.488839,3.352868,7.488839,7.488839z" fill-rule="nonzero" transform="matrix(0.86795829,0,0,0.86795829,0.98062569,1038.3622)" fill="url(#radialGradient3809)"/>
<path d="m13.6875,10.9375c0,0.500508-2.73526,0.90625-6.109375,0.90625s-6.109375-0.405742-6.109375-0.90625,2.73526-0.90625,6.109375-0.90625,6.109375,0.405742,6.109375,0.90625z" transform="matrix(0.85933504,0,0,2.4827586,2.7378517,1020.207)" fill="url(#radialGradient3796)"/>
<path stroke-linejoin="miter" d="m2,1048.362,1-1" stroke="#ff7070" stroke-linecap="round" stroke-width="1px" fill="none"/>
<path stroke-linejoin="miter" d="M4,12,6,10" transform="translate(0,1037.3622)" stroke="#ff7070" stroke-linecap="round" stroke-width="1px" fill="none"/>
<path stroke-linejoin="miter" d="m7,1049.362,2-2" stroke="#ff7070" stroke-linecap="round" stroke-width="1px" fill="none"/>
<path stroke-linejoin="miter" d="m10,1049.362,2-2" stroke="#ff7070" stroke-linecap="round" stroke-width="1px" fill="none"/>
<path stroke-linejoin="miter" d="m13,1049.362,1-1" stroke="#ff7070" stroke-linecap="round" stroke-width="1px" fill="none"/>
<path d="m7.797115,5.908627c0,0.8194037-0.6854576,1.483662-1.531012,1.483662-0.8455548,0-1.531012-0.6642579-1.531012-1.483662,0-0.8194036,0.6854576-1.483662,1.531012-1.483662,0.8455548,0,1.531012,0.6642579,1.531012,1.483662z" fill-rule="nonzero" transform="matrix(0.48987192,0,0,0.50550614,3.4304124,1042.8754)" fill="#804000"/>
<path d="m7.797115,5.908627c0,0.8194037-0.6854576,1.483662-1.531012,1.483662-0.8455548,0-1.531012-0.6642579-1.531012-1.483662,0-0.8194036,0.6854576-1.483662,1.531012-1.483662,0.8455548,0,1.531012,0.6642579,1.531012,1.483662z" fill-rule="nonzero" transform="matrix(0.48987192,0,0,0.50550614,8.4304124,1042.8754)" fill="#804000"/>
</g>
</svg>
