<?xml version="1.0" encoding="UTF-8" standalone="no"?>
<!-- Created with Inkscape (http://www.inkscape.org/) -->

<svg
   xmlns:dc="http://purl.org/dc/elements/1.1/"
   xmlns:cc="http://creativecommons.org/ns#"
   xmlns:rdf="http://www.w3.org/1999/02/22-rdf-syntax-ns#"
   xmlns:svg="http://www.w3.org/2000/svg"
   xmlns="http://www.w3.org/2000/svg"
   xmlns:sodipodi="http://sodipodi.sourceforge.net/DTD/sodipodi-0.dtd"
   xmlns:inkscape="http://www.inkscape.org/namespaces/inkscape"
   width="64"
   height="64"
   id="svg2"
   version="1.1"
   inkscape:version="0.48.2 r9819"
   inkscape:export-filename="E:\Desktop\a.png"
   inkscape:export-xdpi="96"
   inkscape:export-ydpi="96"
   sodipodi:docname="bp.svg">
  <defs
     id="defs4" />
  <sodipodi:namedview
     id="base"
     pagecolor="#ffffff"
     bordercolor="#666666"
     borderopacity="1.0"
     inkscape:pageopacity="0.0"
     inkscape:pageshadow="2"
     inkscape:zoom="8"
     inkscape:cx="49.720425"
     inkscape:cy="25.296917"
     inkscape:document-units="px"
     inkscape:current-layer="svg2"
     showgrid="false" />
  <metadata
     id="metadata7">
    <rdf:RDF>
      <cc:Work
         rdf:about="">
        <dc:format>image/svg+xml</dc:format>
        <dc:type
           rdf:resource="http://purl.org/dc/dcmitype/StillImage" />
        <dc:title />
      </cc:Work>
    </rdf:RDF>
  </metadata>
  <path
     style="fill:#000000;fill-opacity:1;stroke:none;display:inline"
     d="M 27.504664,9.0432498 C 20.407912,9.8846098 0,17.6671 0,37.6775 C 0,55.6502 20.469277,63.8 34.963893,63.8 C 57.535307,63.8 64,49.1007 64,39.1846 C 64,25.634 55.761381,18.789 55.761381,18.789 C 59.49581,18.4732 62.161981,13.2911 57.89565,9.2858098 C 53.893305,5.5283598 49.174121,8.0927198 47.957644,12.3969 C 45.599691,10.67226 40.68284,9.0739098 37.32853,9.0604898 C 38.493581,7.6006998 39.202699,-0.5692802 31.631114,0.1601898 C 24.753177,0.8228298 25.515293,7.6317498 27.504664,9.0432498 z"
     id="path3004"
     inkscape:connector-curvature="0"
     sodipodi:nodetypes="cssscsccsc" />
  <path
     style="fill:#6ee249;fill-opacity:1;stroke:none;display:inline"
     d="M 32.150706,1.5895598 C 25.145411,1.9597198 28.259664,9.6537498 30.744113,10.32427 C 17.153336,12.5468 2.187765,21.9327 1.89011,37.9538 C 3.203349,53.5872 20.123944,62.0845 34.704836,61.7655 C 49.285728,61.4465 61.777292,52.8643 62.054452,41.1806 C 62.351368,28.664 56.112139,20.9842 52.38126,17.796 C 57.315911,17.5859 60.283772,14.1815 56.496075,10.14845 C 52.317726,6.8451098 49.498219,11.8478 48.6719,14.8581 C 43.81697,11.44278 39.955001,10.79428 35.158556,10.52521 C 37.281761,8.2001798 37.361637,1.3142098 32.150706,1.5895598 z"
     id="path3811"
     inkscape:connector-curvature="0"
     sodipodi:nodetypes="scczsccccs" />
  <path
     style="fill:#8ae86c;fill-opacity:1;stroke:none;display:inline"
     d="M 32.216187,11.04188 C 32.216187,11.04188 45.912409,10.24276 53.753698,20.0543 C 61.594988,29.8658 62.012527,41.4079 62.012527,41.4079 C 62.012527,41.4079 57.979028,28.8118 50.21675,21.328 C 42.454471,13.8443 32.216187,11.04188 32.216187,11.04188 z"
     id="path3921"
     inkscape:connector-curvature="0"
     sodipodi:nodetypes="czczc" />
  <path
     sodipodi:type="arc"
     style="fill:#153a0f;fill-opacity:1;fill-rule:nonzero;stroke:none;display:inline"
     id="path3814"
     sodipodi:cx="31.950001"
     sodipodi:cy="7.4499998"
     sodipodi:rx="1.55"
     sodipodi:ry="1.95"
     d="M 33.500001,7.4499998 A 1.55,1.95 0 1 1 30.400001,7.4499998 A 1.55,1.95 0 1 1 33.500001,7.4499998 z"
     transform="matrix(1.6180063,0,0,1.4941835,-19.447987,-4.8011302)" />
  <path
     transform="matrix(1.6828262,0,0,1.2880892,-0.922439,4.2695998)"
     d="M 33.500001,7.4499998 A 1.55,1.95 0 1 1 30.400001,7.4499998 A 1.55,1.95 0 1 1 33.500001,7.4499998 z"
     sodipodi:ry="1.95"
     sodipodi:rx="1.55"
     sodipodi:cy="7.4499998"
     sodipodi:cx="31.950001"
     id="path3816"
     style="fill:#153a0f;fill-opacity:1;fill-rule:nonzero;stroke:none;display:inline"
     sodipodi:type="arc" />
  <path
     style="fill:#296211;fill-opacity:1;stroke:none;display:inline"
     d="M 11.591837,21.8713 C 13.592483,20.7534 15.927881,20.4575 18.615336,20.8114 C 16.710045,16.8087 11.673936,18.5038 11.591837,21.8713 z"
     id="path3848"
     inkscape:connector-curvature="0"
     sodipodi:nodetypes="ccc" />
  <path
     style="fill:#296211;fill-opacity:1;stroke:none;display:inline"
     d="M 53.147765,26.4508 C 56.443653,21.5571 59.547678,27.0889 60.131868,29.1563 C 58.252233,26.7571 56.024009,26.2076 53.147765,26.4508 z"
     id="path3850"
     inkscape:connector-curvature="0"
     sodipodi:nodetypes="ccc" />
  <path
     sodipodi:type="arc"
     style="fill:#57b539;fill-opacity:1;fill-rule:nonzero;stroke:none;display:inline"
     id="path3852"
     sodipodi:cx="12.772117"
     sodipodi:cy="41.858719"
     sodipodi:rx="6.2313786"
     sodipodi:ry="6.2313786"
     d="M 19.003495,41.858719 A 6.2313786,6.2313786 0 1 1 6.5407381,41.858719 A 6.2313786,6.2313786 0 1 1 19.003495,41.858719 z"
     transform="matrix(1.0047096,0,0,1.0047096,0.130944,-4.1658202)" />
  <path
     transform="matrix(1.0047096,0,0,1.0047096,41.247483,1.6952798)"
     d="M 19.003495,41.858719 A 6.2313786,6.2313786 0 1 1 6.5407381,41.858719 A 6.2313786,6.2313786 0 1 1 19.003495,41.858719 z"
     sodipodi:ry="6.2313786"
     sodipodi:rx="6.2313786"
     sodipodi:cy="41.858719"
     sodipodi:cx="12.772117"
     id="path3872"
     style="fill:#57b539;fill-opacity:1;fill-rule:nonzero;stroke:none;display:inline"
     sodipodi:type="arc" />
  <path
     sodipodi:type="arc"
     style="fill:#56a100;fill-opacity:1;fill-rule:nonzero;stroke:none;display:inline"
     id="path3874"
     sodipodi:cx="15.1875"
     sodipodi:cy="35.4375"
     sodipodi:rx="7.5625"
     sodipodi:ry="7.5625"
     d="M 22.75,35.4375 A 7.5625,7.5625 0 1 1 7.625,35.4375 A 7.5625,7.5625 0 1 1 22.75,35.4375 z"
     transform="matrix(1.0047096,0,0,1.0047096,-2.034537,-1.7071402)" />
  <path
     transform="matrix(1.0047096,0,0,1.0047096,39.284144,4.5722898)"
     d="M 22.75,35.4375 A 7.5625,7.5625 0 1 1 7.625,35.4375 A 7.5625,7.5625 0 1 1 22.75,35.4375 z"
     sodipodi:ry="7.5625"
     sodipodi:rx="7.5625"
     sodipodi:cy="35.4375"
     sodipodi:cx="15.1875"
     id="path3876"
     style="fill:#56a100;fill-opacity:1;fill-rule:nonzero;stroke:none;display:inline"
     sodipodi:type="arc" />
  <path
     transform="matrix(0.79921128,0,0,0.79921128,1.086468,5.5751998)"
     d="M 22.75,35.4375 A 7.5625,7.5625 0 1 1 7.625,35.4375 A 7.5625,7.5625 0 1 1 22.75,35.4375 z"
     sodipodi:ry="7.5625"
     sodipodi:rx="7.5625"
     sodipodi:cy="35.4375"
     sodipodi:cx="15.1875"
     id="path3880"
     style="fill:#ffffff;fill-opacity:1;fill-rule:nonzero;stroke:none;display:inline"
     sodipodi:type="arc" />
  <path
     sodipodi:type="arc"
     style="fill:#ffffff;fill-opacity:1;fill-rule:nonzero;stroke:none;display:inline"
     id="path3882"
     sodipodi:cx="15.1875"
     sodipodi:cy="35.4375"
     sodipodi:rx="7.5625"
     sodipodi:ry="7.5625"
     d="M 22.75,35.4375 A 7.5625,7.5625 0 1 1 7.625,35.4375 A 7.5625,7.5625 0 1 1 22.75,35.4375 z"
     transform="matrix(0.79921128,0,0,0.79921128,42.40515,11.8547)" />
  <path
     sodipodi:type="arc"
     style="fill:#000000;fill-opacity:1;fill-rule:nonzero;stroke:none;display:inline"
     id="path3886"
     sodipodi:cx="-10.739184"
     sodipodi:cy="17.728701"
     sodipodi:rx="2.3422911"
     sodipodi:ry="2.3422911"
     d="M -8.3968933,17.728701 A 2.3422911,2.3422911 0 1 1 -13.081475,17.728701 A 2.3422911,2.3422911 0 1 1 -8.3968933,17.728701 z"
     transform="matrix(0.65400905,0,0,0.65400905,17.744418,22.4101)" />
  <path
     transform="matrix(0.48339798,0,0,0.48339798,61.024941,32.3615)"
     d="M -8.3968933,17.728701 A 2.3422911,2.3422911 0 1 1 -13.081475,17.728701 A 2.3422911,2.3422911 0 1 1 -8.3968933,17.728701 z"
     sodipodi:ry="2.3422911"
     sodipodi:rx="2.3422911"
     sodipodi:cy="17.728701"
     sodipodi:cx="-10.739184"
     id="path3888"
     style="fill:#000000;fill-opacity:1;fill-rule:nonzero;stroke:none;display:inline"
     sodipodi:type="arc" />
  <path
     style="fill:#153a0f;fill-opacity:1;stroke:none;display:inline"
     d="M 13.007613,49.4791 C 13.183792,54.8754 21.969033,52.6665 30.768539,53.8305 C 39.568044,54.9946 48.274633,59.1404 49.239898,54.4522 C 50.205163,49.764 40.459285,46.9605 33.699089,45.7493 C 26.938894,44.5382 12.831434,44.0828 13.007613,49.4791 z"
     id="path3901"
     inkscape:connector-curvature="0"
     sodipodi:nodetypes="zzzzz" />
  <path
     style="fill:#ffffff;fill-opacity:1;stroke:none;display:inline"
     d="M 23.116315,44.9905 C 23.116315,44.9905 22.052124,50.1092 25.662272,50.5892 C 29.272418,51.0691 29.258859,45.6605 29.258859,45.6605 L 23.708407,44.9775 z"
     id="path3903"
     inkscape:connector-curvature="0"
     sodipodi:nodetypes="czccc" />
  <path
     sodipodi:nodetypes="czcc"
     inkscape:connector-curvature="0"
     id="path3905"
     d="M 29.741118,47.1883 C 29.741118,47.1883 28.802518,52.2756 32.34987,52.6299 C 35.897222,52.9843 35.883663,47.4815 35.883663,47.4815 z"
     style="fill:#ffffff;fill-opacity:1;stroke:none;display:inline" />
  <path
     style="fill:#ffffff;fill-opacity:1;stroke:none;display:inline"
     d="M 36.739867,47.1883 C 36.739867,47.1883 35.824824,52.2756 39.283145,52.6299 C 42.741466,52.9843 42.728247,47.4815 42.728247,47.4815 z"
     id="path3907"
     inkscape:connector-curvature="0"
     sodipodi:nodetypes="czcc" />
  <path
     style="fill:#659c00;fill-opacity:1;fill-rule:nonzero;stroke:none;display:inline"
     d="M 49.896389,38.0417 C 50.240261,45.5874 45.961645,49.6587 37.77708,49.6587 C 29.466926,49.6587 20.571429,46.9722 20.634223,37.0998 C 20.689827,28.3579 27.28603,23.8268 35.453689,24.3526 C 45.208113,24.9805 49.523959,29.8694 49.896389,38.0417 z"
     id="path3890"
     inkscape:connector-curvature="0"
     sodipodi:nodetypes="sssss" />
  <path
     sodipodi:nodetypes="sssss"
     inkscape:connector-curvature="0"
     id="path3893"
     d="M 48.257118,37.9233 C 48.562437,44.623 44.763509,48.2379 37.496537,48.2379 C 30.118057,48.2379 22.219858,45.8526 22.275612,37.087 C 22.324981,29.3251 28.181668,25.3019 35.433628,25.7688 C 44.094457,26.3263 47.926441,30.6672 48.257118,37.9233 z"
     style="fill:#a5e900;fill-opacity:1;fill-rule:nonzero;stroke:none;display:inline" />
  <path
     sodipodi:type="arc"
     style="fill:#153a0f;fill-opacity:1;fill-rule:nonzero;stroke:none;display:inline"
     id="path3895"
     sodipodi:cx="31.75"
     sodipodi:cy="37.96875"
     sodipodi:rx="2.9375"
     sodipodi:ry="3.65625"
     d="M 34.6875,37.96875 A 2.9375,3.65625 0 1 1 28.8125,37.96875 A 2.9375,3.65625 0 1 1 34.6875,37.96875 z"
     transform="matrix(1.0031897,0.19514477,-0.19514477,1.0031897,6.051065,-7.5313202)" />
  <path
     transform="matrix(1.0542471,0.06995599,-0.07761186,1.1914309,10.579662,-9.1340002)"
     d="M 34.6875,37.96875 A 2.9375,3.65625 0 1 1 28.8125,37.96875 A 2.9375,3.65625 0 1 1 34.6875,37.96875 z"
     sodipodi:ry="3.65625"
     sodipodi:rx="2.9375"
     sodipodi:cy="37.96875"
     sodipodi:cx="31.75"
     id="path3899"
     style="fill:#153a0f;fill-opacity:1;fill-rule:nonzero;stroke:none;display:inline"
     sodipodi:type="arc" />
  <path
     style="fill:#ffffff;fill-opacity:1;stroke:none;display:inline"
     d="M 27.792779,51.0402 C 26.322163,50.9949 25.586007,52.3274 25.21821,53.4578 C 26.867647,53.5015 28.577177,53.5659 30.304553,53.7717 C 30.245745,52.6397 29.80815,51.4495 28.326531,51.103 C 28.137877,51.0589 27.961787,51.0454 27.792779,51.0402 z"
     id="path3913"
     inkscape:connector-curvature="0" />
  <path
     style="fill:#ffffff;fill-opacity:1;stroke:none;display:inline"
     d="M 36.050235,52.0763 C 34.671165,52.0338 33.928855,53.1958 33.538462,54.2741 C 35.263171,54.6039 36.936558,55.0305 38.530612,55.4044 C 38.594769,54.1331 38.330969,52.5476 36.583987,52.1391 C 36.395334,52.095 36.219244,52.0815 36.050235,52.0763 z"
     id="path3916"
     inkscape:connector-curvature="0" />
  <path
     style="fill:#b7ed33;fill-opacity:1;stroke:none;display:inline"
     d="M 34.531961,26.0347 C 34.531961,26.0347 41.145939,25.8565 44.919599,29.5637 C 48.693259,33.271 47.540948,40.0068 47.540948,40.0068 C 47.540948,40.0068 47.868845,35.7941 43.585557,31.0716 C 39.302269,26.349 34.531961,26.0347 34.531961,26.0347 z"
     id="path3919"
     inkscape:connector-curvature="0"
     sodipodi:nodetypes="czczc" />
  <path
     style="fill:#8ae86c;fill-opacity:1;stroke:none;display:inline"
     d="M 52.570072,9.6945698 C 52.570072,9.6945698 55.549664,9.3185798 56.877094,10.89344 C 58.204526,12.4684 57.809544,14.7565 57.809544,14.7565 C 56.677472,11.8404 54.627412,10.76016 52.570072,9.6945698 z"
     id="path3923"
     inkscape:connector-curvature="0"
     sodipodi:nodetypes="czcc" />
  <path
     style="opacity:0.2;fill:#000000;fill-opacity:1;stroke:none"
     d="M 3.625,45.625 C 3.625,45.625 7.9946046,54.249569 23.656087,58.454029 C 39.317569,62.658489 50.25,59.25 50.25,59.25 C 50.25,59.25 36.299807,64.309757 22.130749,60.858914 C 7.9616906,57.40807 3.625,45.625 3.625,45.625 z"
     id="path3776"
     inkscape:connector-curvature="0"
     sodipodi:nodetypes="czczc" />
</svg>
