<!-- Created with Inkscape (http://www.inkscape.org/) --><svg xmlns:rdf="http://www.w3.org/1999/02/22-rdf-syntax-ns#" xmlns="http://www.w3.org/2000/svg" height="15" width="16" version="1.1" xmlns:cc="http://creativecommons.org/ns#" xmlns:xlink="http://www.w3.org/1999/xlink" xmlns:dc="http://purl.org/dc/elements/1.1/"><defs>  <radialGradient id="radialGradient3838-1" xlink:href="#linearGradient3763-2" gradientUnits="userSpaceOnUse" cy="6.7612653" cx="-13.110283" gradientTransform="matrix(-1.4985599,1.2364222e-7,-1.2384326e-7,-1.5009966,-16.653587,18.238617)" r="2.0108349"/>    <linearGradient id="linearGradient3763-2">    <stop stop-color="#ffffc8" offset="0"/>    <stop stop-color="#ffe000" offset="0.5"/>    <stop stop-color="#e0a800" offset="1"/>  </linearGradient>  <radialGradient id="radialGradient3809-9" xlink:href="#linearGradient3763-2" gradientUnits="userSpaceOnUse" cy="3.4097147" cx="11.508407" gradientTransform="matrix(-1.6924876,4.1085294e-8,-4.1111989e-8,-1.6935873,31.023377,9.2246464)" r="7.4888391"/>  <linearGradient id="linearGradient3820-4" y2="1045.3622" gradientUnits="userSpaceOnUse" x2="6.0009308" gradientTransform="translate(4.5328388e-8,-1037.3622)" y1="1045.3622" x1="9.9984274">    <stop stop-color="#a06020" offset="0"/>    <stop stop-color="#804000" offset="1"/>  </linearGradient>  <linearGradient id="linearGradient3802-6" y2="1045.3677" gradientUnits="userSpaceOnUse" x2="7.5030293" gradientTransform="translate(4.5328388e-8,-1037.3622)" y1="1049.3619" x1="6.5546875">    <stop stop-color="#ff3838" offset="0"/>    <stop stop-color="#ff8080" offset="1"/>  </linearGradient>  <radialGradient id="radialGradient3832-8" xlink:href="#linearGradient3763-2" gradientUnits="userSpaceOnUse" cy="8.0965185" cx="2.9922962" gradientTransform="matrix(-1.4985599,1.2364222e-7,-1.2384326e-7,-1.5009966,7.4764324,20.249364)" r="2.0108349"/>  <g id="right">    <path d="M3.9995728,9.1000776a2.0108349,2.0108349,0,1,1,-4.0216699,0,2.0108349,2.0108349,0,1,1,4.0216699,0z" fill-rule="nonzero" transform="matrix(0.99461172,0,0,0.99461172,12.021978,0.94900047)" fill="#905000"/>    <path d="M3.9995728,9.1000776a2.0108349,2.0108349,0,1,1,-4.0216699,0,2.0108349,2.0108349,0,1,1,4.0216699,0z" fill-rule="nonzero" transform="matrix(0.49730586,0,0,0.49730586,13.010989,5.4745005)" fill="url(#radialGradient3838-1)"/>  </g>  <g id="static">    <path d="M15,7.4888391a7.4888391,7.4888391,0,1,1,-14.977678,0,7.4888391,7.4888391,0,1,1,14.977678,0z" fill-rule="nonzero" transform="matrix(1.0014903,0,0,1.0014903,-0.02235495,4.6708088e-7)" fill="#804000"/>    <path d="M15,7.4888391a7.4888391,7.4888391,0,1,1,-14.977678,0,7.4888391,7.4888391,0,1,1,14.977678,0z" fill-rule="nonzero" transform="matrix(0.86795829,0,0,0.86795829,0.98062605,1.0000005)" fill="url(#radialGradient3809-9)"/>    <path d="M7.7971147,5.908627a1.5310124,1.4836615,0,1,1,-3.0620248,0,1.5310124,1.4836615,0,1,1,3.0620248,0z" fill-rule="nonzero" transform="matrix(0.48987192,0,0,0.50550614,1.4304119,0.51320047)" fill="#804000"/>    <rect fill-rule="nonzero" rx="0.5" ry="0.5" height="8" width="4" y="3.9999833" x="6" fill="url(#linearGradient3820-4)"/>    <path d="M7.7971147,5.908627a1.5310124,1.4836615,0,1,1,-3.0620248,0,1.5310124,1.4836615,0,1,1,3.0620248,0z" fill-rule="nonzero" transform="matrix(0.48987192,0,0,-0.50550614,8.4304124,6.4868005)" fill="#804000"/>    <path d="M6.5000004,8.0000005c-0.277,0-0.5,0.223-0.5,0.5v0.9999998,0.4999997,1.5c0,0.277,0.223,0.5,0.5,0.5h1c0.277,0,0.5-0.223,0.5-0.5v-1.5h0.5c0.277,0,0.5-0.2229997,0.5-0.4999997,0-1.0020604-0.504958-1.4999998-1.5-1.4999998h-1z" fill-rule="nonzero" fill="url(#linearGradient3802-6)"/>  </g>  <g id="left">    <path d="M3.9995728,9.1000776a2.0108349,2.0108349,0,1,1,-4.0216699,0,2.0108349,2.0108349,0,1,1,4.0216699,0z" fill-rule="nonzero" transform="matrix(0.99461172,0,0,0.99461172,0.02197805,-0.05099953)" fill="#684000"/>    <path d="M3.9995728,9.1000776a2.0108349,2.0108349,0,1,1,-4.0216699,0,2.0108349,2.0108349,0,1,1,4.0216699,0z" fill-rule="nonzero" transform="matrix(0.49730586,0,0,0.49730586,1.0109889,4.4745005)" fill="url(#radialGradient3832-8)"/>  </g></defs><g>  <animateTransform id="up_r" attributeName="transform" type="translate" from="0,-1" to="0,1" begin="0s; down_r.end" dur="0.1s" />  <use xlink:href="#right" />  <animateTransform id="down_r" attributeName="transform" type="translate" from="0,1" to="0,-1" begin="up_r.end" dur="0.1s" />  <use xlink:href="#right" /></g><g><use xlink:href="#static" /></g><g><animateTransform id="up_l" attributeName="transform" type="translate" from="0,-1" to="0,1" begin="0s; down_l.end" dur="0.1s" />  <use xlink:href="#left" />  <animateTransform id="down_l" attributeName="transform" type="translate" from="0,1" to="0,-1" begin="up_l.end" dur="0.1s" />  <use xlink:href="#left" /></g></svg>