<!-- Created with Inkscape (http://www.inkscape.org/) -->
<svg xmlns:rdf="http://www.w3.org/1999/02/22-rdf-syntax-ns#" xmlns="http://www.w3.org/2000/svg" height="15" width="15" version="1.1" xmlns:cc="http://creativecommons.org/ns#" xmlns:xlink="http://www.w3.org/1999/xlink" xmlns:dc="http://purl.org/dc/elements/1.1/">
<defs>
<radialGradient id="radialGradient3809" gradientUnits="userSpaceOnUse" cy="3.409715" cx="11.50841" gradientTransform="matrix(-1.6924876,4.1085294e-8,-4.1111989e-8,-1.6935873,31.023377,9.2246068)" r="7.488839">
<stop stop-color="#ffffc8" offset="0"/>
<stop stop-color="#ffe000" offset="0.5"/>
<stop stop-color="#e0a800" offset="1"/>
</radialGradient>
</defs>
<metadata>
<rdf:RDF>
<cc:Work rdf:about="">
<dc:format>image/svg+xml</dc:format>
<dc:type rdf:resource="http://purl.org/dc/dcmitype/StillImage"/>
<dc:title/>
</cc:Work>
</rdf:RDF>
</metadata>
<g transform="translate(0,-1037.3622)">
<path d="m15,7.488839c0,4.135972-3.352867,7.488839-7.488839,7.488839s-7.488839-3.352867-7.488839-7.488839c-3E-7-4.135973,3.352867-7.488841,7.488839-7.488841,4.135969,0,7.488839,3.352868,7.488839,7.488839z" fill-rule="nonzero" transform="matrix(1.0014903,0,0,1.0014903,-0.02235497,1037.3622)" fill="#804000"/>
<path d="m15,7.488839c0,4.135972-3.352867,7.488839-7.488839,7.488839s-7.488839-3.352867-7.488839-7.488839c-3E-7-4.135973,3.352867-7.488841,7.488839-7.488841,4.135969,0,7.488839,3.352868,7.488839,7.488839z" fill-rule="nonzero" transform="matrix(0.86795829,0,0,0.86795829,0.98062569,1038.3622)" fill="url(#radialGradient3809)"/>
<path d="m7.797115,5.908627a1.531012,1.483662,0,1,1,-3.062025,0,1.531012,1.483662,0,1,1,3.062025,0z" fill-rule="nonzero" transform="matrix(0.48987192,0,0,0.50550614,2.4304124,1037.8754)" fill="#804000"/>
<path d="m7.797115,5.908627a1.531012,1.483662,0,1,1,-3.062025,0,1.531012,1.483662,0,1,1,3.062025,0z" fill-rule="nonzero" transform="matrix(0.48987192,0,0,0.50550614,6.4304124,1037.8754)" fill="#804000"/>
<path style="baseline-shift:baseline;block-progression:tb;color:#000000;direction:ltr;text-indent:0;text-align:start;enable-background:accumulate;text-transform:none;" fill="#804000" d="m3,1042.362,0,0.5,0,4,0,0.094,0.03125,0.094s1.318874,3.3125,4.46875,3.3125,4.46875-3.3125,4.46875-3.3125l0.03125-0.094v-0.094-4-0.5h-0.5-8-0.5z"/>
<path transform="translate(0,1037.3622)" fill="#FFF" d="M4,6v3.375c0.029958,0.071254,0.454086,1.09548,1.375,1.84375v-5.21875h-1.375zm1.625,0v5.375c0.472644,0.33035,1.051751,0.59564,1.75,0.625v-6h-1.75zm2,0v6c0.7021-0.02639,1.275921-0.29308,1.75-0.625v-5.375h-1.75zm2,0v5.1875c0.90288-0.74701,1.34534-1.741939,1.375-1.8125v-3.375h-1.375z"/>
</g>
</svg>
