<!-- Created with Inkscape (http://www.inkscape.org/) -->
<svg xmlns:rdf="http://www.w3.org/1999/02/22-rdf-syntax-ns#" xmlns="http://www.w3.org/2000/svg" height="15" width="15" version="1.1" xmlns:cc="http://creativecommons.org/ns#" xmlns:xlink="http://www.w3.org/1999/xlink" xmlns:dc="http://purl.org/dc/elements/1.1/">
<defs>
<radialGradient id="radialGradient3796-1" gradientUnits="userSpaceOnUse" cy="1049.3215" cx="8.0372305" gradientTransform="matrix(-1.470519,8.6940424e-8,-6.5323276e-8,-1.1048844,20.253227,1169.8827)" r="2.2138844">  <stop stop-color="#ff8080" offset="0"/>  <stop stop-color="#ff3838" offset="1"/></radialGradient>
<radialGradient id="radialGradient3813-9" gradientUnits="userSpaceOnUse" cy="1046.9349" cx="5.0207829" gradientTransform="matrix(1.6966939,7.0668987e-8,-4.5196872e-8,1.0851331,-4.008447,-1126.5992)" r="4.9889021">
  <stop stop-color="#a06020" offset="0"/>
  <stop stop-color="#804000" offset="1"/>
</radialGradient>
<radialGradient id="radialGradient3809-2" gradientUnits="userSpaceOnUse" cy="3.4097147" cx="11.508407" gradientTransform="matrix(-1.6924876,4.1085294e-8,-4.1111989e-8,-1.6935873,31.023376,9.2246469)" r="7.4888391">
  <stop stop-color="#ffffc8" offset="0"/>
  <stop stop-color="#ffe000" offset="0.5"/>
  <stop stop-color="#e0a800" offset="1"/>
</radialGradient><g id="move">  <path d="M7.7971147,5.908627a1.5310124,1.4836615,0,1,1,-3.0620248,0,1.5310124,1.4836615,0,1,1,3.0620248,0z" fill-rule="nonzero" transform="matrix(0.48987192,0,0,0.50550614,1.4304121,0.51320047)" fill="#804000"/>  <path d="M7.7971147,5.908627a1.5310124,1.4836615,0,1,1,-3.0620248,0,1.5310124,1.4836615,0,1,1,3.0620248,0z" fill-rule="nonzero" transform="matrix(0.48987192,0,0,-0.50550614,6.4304121,5.4868005)" fill="#804000"/>  <path d="M12.914899,6.7376005c0.421055,2.8701996-1.307433,5.8091995-4.1127534,6.2207995-2.8053145,0.4115-5.3940975-2.3038-5.7622515-4.8135999-0.368165-2.5096996,1.863144-3.5111996,4.5763743-3.9092996,2.7132166-0.398,4.8776056-0.3681,5.2986306,2.5021z" fill-rule="nonzero" fill="url(#radialGradient3813-9)"/>  <path d="M8.6903352,10.7065c0.4040034,0.3332,1.7424158,2.0346,0.1079044,2.2558-1.6345127,0.2212-2.8150355-0.5435-3.4363735-1.0065-0.621338-0.4629,0.362992-1.9601999,1.5271-1.9601999,0.8613336,0,1.3973658,0.3776999,1.8013691,0.7108999z" fill-rule="nonzero" fill="url(#radialGradient3796-1)"/></g>
</defs><path d="M15,7.4888391a7.4888391,7.4888391,0,1,1,-14.977678,0,7.4888391,7.4888391,0,1,1,14.977678,0z" fill-rule="nonzero" transform="matrix(1.0014903,0,0,1.0014903,-0.02235497,4.6708088e-7)" fill="#804000"/><path d="M15,7.4888391a7.4888391,7.4888391,0,1,1,-14.977678,0,7.4888391,7.4888391,0,1,1,14.977678,0z" fill-rule="nonzero" transform="matrix(0.86795829,0,0,0.86795829,0.98062598,1.0000005)" fill="url(#radialGradient3809-2)"/><g><animateTransform id="up" attributeName="transform" type="translate" from="-0.2,-0.5" to="0,0.8" begin="0s; down.end" dur="0.1s"/>  <use xlink:href="#move" />  <animateTransform id="down" attributeName="transform" type="translate" from="0,0.8" to="-0.2,-0.5" begin="up.end" dur="0.08s"/>  <use xlink:href="#move" /></g></svg>
