<!-- Created with Inkscape (http://www.inkscape.org/) -->
<svg xmlns:rdf="http://www.w3.org/1999/02/22-rdf-syntax-ns#" xmlns="http://www.w3.org/2000/svg" height="15" width="15" version="1.1" xmlns:cc="http://creativecommons.org/ns#" xmlns:xlink="http://www.w3.org/1999/xlink" xmlns:dc="http://purl.org/dc/elements/1.1/">
<defs>
  <radialGradient id="radialGradient3809" gradientUnits="userSpaceOnUse" cy="3.4097147" cx="11.508407" gradientTransform="matrix(-1.6924876,4.1085294e-8,-4.1111989e-8,-1.6935873,31.023377,9.224647)" r="7.4888391">
    <stop stop-color="#ffffc8" offset="0"/>
    <stop stop-color="#ffe000" offset="0.5"/>
    <stop stop-color="#e0a800" offset="1"/>
  </radialGradient>
  <radialGradient id="radialGradient4702" gradientUnits="userSpaceOnUse" cx="11.508407" cy="3.4097147" r="7.4888391" gradientTransform="matrix(-1.4690086,5.86967e-8,-2.3074896e-8,-1.4699631,27.907623,9.0066085)">
    <stop stop-color="#ffffc8" offset="0"/>
    <stop stop-color="#ffe000" offset="0.5"/>
    <stop stop-color="#e0a800" offset="1"/>
  </radialGradient>  <g id="squiggle">    <path stroke-linejoin="round" d="M-1.8578474,10.57694c1.1058285-0.166437,1.5362694,1.538625,2.6420967,1.372188,1.1058274-0.166434,1.0153208-1.922661,2.1211479-2.089095,1.1058273-0.1664361,1.536269,1.538627,2.6420955,1.372191,1.105827-0.166436,1.01532-1.9226606,2.121147-2.0890959,1.105828-0.1664357,1.53627,1.5386239,2.6420983,1.3721879,1.105828-0.166435,1.01532-1.9226568,2.121148-2.0890923" stroke="#804000" stroke-linecap="round" stroke-width="1px" fill="none"/>  </g>  <mask id="mask" x="0" y="0" width="15" height="15">    <path d="M12.15625,7.9375l-7.90625,1.1875,0.4375,2.9375,7.90625-1.15625z" fill="white" />  </mask>
</defs>
<g fill-rule="nonzero" transform="translate(0,-1037.3622)">
  <path d="M15,7.4888391a7.4888391,7.4888391,0,1,1,-14.977678,0,7.4888391,7.4888391,0,1,1,14.977678,0z" transform="matrix(1.0014903,0,0,1.0014903,-0.02235497,1037.3622)" fill="#804000"/>
  <path d="M15,7.4888391a7.4888391,7.4888391,0,1,1,-14.977678,0,7.4888391,7.4888391,0,1,1,14.977678,0z" transform="matrix(0.86795829,0,0,0.86795829,0.98062603,1038.3622)" fill="url(#radialGradient3809)"/>
</g><g mask="url(#mask)">  <g>    <animateTransform attributeName="transform" type="translate" from="0,0" to="4.5,-0.80" begin="0s" dur="0.25s" repeatCount="indefinite" />    <use xlink:href="#squiggle" />  </g></g><g>
  <path d="M6.5483978,1.0700349c-3.5511717,0.5255554-6.0039184,3.8303957-5.4783629,7.3815675,0.5255552,3.5511716,3.8303955,6.0039176,7.3815673,5.4783626s6.0039178-3.830395,5.4783628-7.381567c-0.525555-3.5511719-3.830395-6.0039185-7.3815672-5.4783631zm-2.3071572,8.0396036l7.9138034-1.171202,0.439202,2.9676765-7.9138044,1.171202z" fill-rule="nonzero" fill="url(#radialGradient4702)"/>
  <path d="M7.7971147,5.908627a1.5310124,1.4836615,0,1,1,-3.0620248,0,1.5310124,1.4836615,0,1,1,3.0620248,0z" fill-rule="nonzero" transform="matrix(0.48987192,0,0,0.50550614,1.4304124,4.5131527)" fill="#804000"/>
  <path d="M7.7971147,5.908627a1.5310124,1.4836615,0,1,1,-3.0620248,0,1.5310124,1.4836615,0,1,1,3.0620248,0z" fill-rule="nonzero" transform="matrix(0.48987192,0,0,-0.50550614,8.4304124,9.4867526)" fill="#804000"/></g>
</svg>